<?xml version="1.0" encoding="UTF-8"?>
<!DOCTYPE svg PUBLIC "-//W3C//DTD SVG 1.1//EN" "http://www.w3.org/Graphics/SVG/1.1/DTD/svg11.dtd">
<svg xmlns="http://www.w3.org/2000/svg" version="1.1" width="172px" height="172px" style="shape-rendering:geometricPrecision; text-rendering:geometricPrecision; image-rendering:optimizeQuality; fill-rule:evenodd; clip-rule:evenodd" xmlns:xlink="http://www.w3.org/1999/xlink">
<g><path style="opacity:0.986" fill="#005e4f" d="M 70.5,-0.5 C 104.167,-0.5 137.833,-0.5 171.5,-0.5C 171.5,9.83333 171.5,20.1667 171.5,30.5C 168.161,33.3343 164.661,36.001 161,38.5C 159.833,37.3333 158.667,36.1667 157.5,35C 158.5,32.9093 157.833,31.2426 155.5,30C 156.925,28.2859 156.592,26.9525 154.5,26C 154.5,24.3333 154.5,22.6667 154.5,21C 151.415,19.0404 148.248,17.2071 145,15.5C 143.295,16.7633 141.628,17.0966 140,16.5C 137.275,17.4795 134.442,18.1462 131.5,18.5C 115.963,17.1188 100.963,15.9521 86.5,15C 84.6711,14.7265 83.1711,13.8932 82,12.5C 81.6924,13.3081 81.1924,13.9747 80.5,14.5C 79.6184,13.2402 78.6184,12.0736 77.5,11C 78.1667,10.6667 78.8333,10.3333 79.5,10C 77.8659,9.50649 76.1992,9.33982 74.5,9.5C 74.719,10.675 74.3857,11.675 73.5,12.5C 72.7193,11.2634 71.7193,10.2634 70.5,9.5C 69.3081,11.6825 67.4747,13.0158 65,13.5C 56.7759,13.2521 48.6092,12.5854 40.5,11.5C 49.8215,5.72788 59.8215,1.72788 70.5,-0.5 Z"/></g>
<g><path style="opacity:0.996" fill="#005b4c" d="M 171.5,30.5 C 171.5,42.1667 171.5,53.8333 171.5,65.5C 169.242,64.5527 168.075,65.5527 168,68.5C 167.418,65.3323 166.418,64.999 165,67.5C 164.612,66.572 163.945,65.9054 163,65.5C 161.343,66.4841 159.677,67.4841 158,68.5C 157.517,67.552 157.351,66.552 157.5,65.5C 155.738,65.3573 154.071,65.6906 152.5,66.5C 151.522,66.0233 150.689,65.3567 150,64.5C 149.626,65.4162 149.126,66.2496 148.5,67C 144.806,69.2663 141.139,70.7663 137.5,71.5C 138.167,71.8333 138.833,72.1667 139.5,72.5C 138.112,75.0789 136.612,75.0789 135,72.5C 134.667,73.1667 134.333,73.8333 134,74.5C 133.329,73.7476 132.496,73.4142 131.5,73.5C 124.833,67.5 118.5,61.1667 112.5,54.5C 114.143,54.4802 115.476,55.1468 116.5,56.5C 117.759,53.23 120.092,51.5633 123.5,51.5C 123.579,52.9305 123.246,54.2638 122.5,55.5C 127.482,55.1209 128.649,52.4542 126,47.5C 125.667,49.1667 125.333,50.8333 125,52.5C 124.474,49.7284 123.641,47.0618 122.5,44.5C 120.504,43.3904 118.671,43.7237 117,45.5C 114.196,43.6556 111.03,42.9889 107.5,43.5C 107.56,39.6727 106.393,39.006 104,41.5C 102.992,41.0183 101.825,40.8516 100.5,41C 101.685,39.647 103.019,38.4803 104.5,37.5C 103.478,36.646 102.645,35.646 102,34.5C 99.2937,33.5427 96.4603,33.5427 93.5,34.5C 94.3202,32.8888 95.6536,32.2222 97.5,32.5C 97.9923,28.7104 97.159,28.0437 95,30.5C 94.6667,29.5 94.3333,28.5 94,27.5C 93.7747,31.4701 92.4414,32.1368 90,29.5C 89.0546,29.9054 88.3879,30.572 88,31.5C 87.6667,31.1667 87.3333,30.8333 87,30.5C 83.6303,32.8356 80.1303,34.1689 76.5,34.5C 76.7036,33.4706 76.2036,32.4706 75,31.5C 73.5589,32.2598 72.0589,32.9264 70.5,33.5C 69.5713,34.6888 69.238,36.0222 69.5,37.5C 68.1779,37.33 67.0113,37.6634 66,38.5C 65.4236,35.8758 64.0902,35.2092 62,36.5C 61.6667,35.8333 61.3333,35.1667 61,34.5C 60.5814,35.6721 59.9147,36.6721 59,37.5C 57.8173,36.269 56.6507,36.269 55.5,37.5C 56.3491,39.5101 55.6824,41.1767 53.5,42.5C 55.3348,43.4277 55.6682,44.5944 54.5,46C 55.4491,46.6172 56.2825,46.4506 57,45.5C 59.0693,47.0854 61.236,48.4187 63.5,49.5C 58.8333,54.8333 53.8333,59.8333 48.5,64.5C 46.9459,63.307 45.2792,62.1404 43.5,61C 43.8333,60.6667 44.1667,60.3333 44.5,60C 42.0582,59.0602 39.7249,57.8935 37.5,56.5C 38.8114,55.7425 39.3114,54.7425 39,53.5C 37.3333,53.8333 35.6667,54.1667 34,54.5C 34,52.5 34,50.5 34,48.5C 32.1291,49.6678 30.6291,49.1678 29.5,47C 31.9365,45.404 32.4365,43.5707 31,41.5C 30.5488,43.9288 29.7155,44.0955 28.5,42C 29.1667,41 29.8333,40 30.5,39C 29.4431,36.6614 28.1097,34.4948 26.5,32.5C 26.7093,31.914 27.0426,31.414 27.5,31C 26.3436,29.3592 24.3436,28.1926 21.5,27.5C 26.6367,20.6925 32.9701,15.3592 40.5,11.5C 48.6092,12.5854 56.7759,13.2521 65,13.5C 67.4747,13.0158 69.3081,11.6825 70.5,9.5C 71.7193,10.2634 72.7193,11.2634 73.5,12.5C 74.3857,11.675 74.719,10.675 74.5,9.5C 76.1992,9.33982 77.8659,9.50649 79.5,10C 78.8333,10.3333 78.1667,10.6667 77.5,11C 78.6184,12.0736 79.6184,13.2402 80.5,14.5C 81.1924,13.9747 81.6924,13.3081 82,12.5C 83.1711,13.8932 84.6711,14.7265 86.5,15C 100.963,15.9521 115.963,17.1188 131.5,18.5C 134.442,18.1462 137.275,17.4795 140,16.5C 141.628,17.0966 143.295,16.7633 145,15.5C 148.248,17.2071 151.415,19.0404 154.5,21C 154.5,22.6667 154.5,24.3333 154.5,26C 156.592,26.9525 156.925,28.2859 155.5,30C 157.833,31.2426 158.5,32.9093 157.5,35C 158.667,36.1667 159.833,37.3333 161,38.5C 164.661,36.001 168.161,33.3343 171.5,30.5 Z"/></g>
<g><path style="opacity:0.976" fill="#005f50" d="M 21.5,27.5 C 24.3436,28.1926 26.3436,29.3592 27.5,31C 27.0426,31.414 26.7093,31.914 26.5,32.5C 28.1097,34.4948 29.4431,36.6614 30.5,39C 29.8333,40 29.1667,41 28.5,42C 29.7155,44.0955 30.5488,43.9288 31,41.5C 32.4365,43.5707 31.9365,45.404 29.5,47C 30.6291,49.1678 32.1291,49.6678 34,48.5C 34,50.5 34,52.5 34,54.5C 35.6667,54.1667 37.3333,53.8333 39,53.5C 39.3114,54.7425 38.8114,55.7425 37.5,56.5C 39.7249,57.8935 42.0582,59.0602 44.5,60C 44.1667,60.3333 43.8333,60.6667 43.5,61C 45.2792,62.1404 46.9459,63.307 48.5,64.5C 46.1667,67.5 43.5,70.1667 40.5,72.5C 33.9256,67.9394 27.5923,62.9394 21.5,57.5C 18.0622,54.5653 14.7289,51.3986 11.5,48C 10.2068,47.51 8.87344,47.3433 7.5,47.5C 11.0314,39.9802 15.6981,33.3135 21.5,27.5 Z"/></g>
<g><path style="opacity:1" fill="#00574a" d="M 112.5,54.5 C 110.704,53.2073 109.037,51.7073 107.5,50C 103.107,51.0308 99.7738,53.6975 97.5,58C 98.6502,59.981 99.9835,61.8143 101.5,63.5C 100.06,65.7652 98.3932,65.9319 96.5,64C 97.1667,63.6667 97.8333,63.3333 98.5,63C 96.7306,61.9806 95.0639,61.814 93.5,62.5C 92.0013,60.1978 90.668,60.5311 89.5,63.5C 88.5745,62.3595 87.7412,62.3595 87,63.5C 84.6999,61.0522 83.3665,61.7188 83,65.5C 81.3905,64.8534 79.8905,64.02 78.5,63C 79.3279,62.0853 80.3279,61.4186 81.5,61C 78.904,60.542 76.7373,61.3754 75,63.5C 73.955,62.6266 73.1217,61.6266 72.5,60.5C 73.4124,59.2618 73.5791,57.9285 73,56.5C 70.4687,53.1119 67.302,50.7786 63.5,49.5C 61.236,48.4187 59.0693,47.0854 57,45.5C 56.2825,46.4506 55.4491,46.6172 54.5,46C 55.6682,44.5944 55.3348,43.4277 53.5,42.5C 55.6824,41.1767 56.3491,39.5101 55.5,37.5C 56.6507,36.269 57.8173,36.269 59,37.5C 59.9147,36.6721 60.5814,35.6721 61,34.5C 61.3333,35.1667 61.6667,35.8333 62,36.5C 64.0902,35.2092 65.4236,35.8758 66,38.5C 67.0113,37.6634 68.1779,37.33 69.5,37.5C 69.238,36.0222 69.5713,34.6888 70.5,33.5C 72.0589,32.9264 73.5589,32.2598 75,31.5C 76.2036,32.4706 76.7036,33.4706 76.5,34.5C 80.1303,34.1689 83.6303,32.8356 87,30.5C 87.3333,30.8333 87.6667,31.1667 88,31.5C 88.3879,30.572 89.0546,29.9054 90,29.5C 92.4414,32.1368 93.7747,31.4701 94,27.5C 94.3333,28.5 94.6667,29.5 95,30.5C 97.159,28.0437 97.9923,28.7104 97.5,32.5C 95.6536,32.2222 94.3202,32.8888 93.5,34.5C 96.4603,33.5427 99.2937,33.5427 102,34.5C 102.645,35.646 103.478,36.646 104.5,37.5C 103.019,38.4803 101.685,39.647 100.5,41C 101.825,40.8516 102.992,41.0183 104,41.5C 106.393,39.006 107.56,39.6727 107.5,43.5C 111.03,42.9889 114.196,43.6556 117,45.5C 118.671,43.7237 120.504,43.3904 122.5,44.5C 123.641,47.0618 124.474,49.7284 125,52.5C 125.333,50.8333 125.667,49.1667 126,47.5C 128.649,52.4542 127.482,55.1209 122.5,55.5C 123.246,54.2638 123.579,52.9305 123.5,51.5C 120.092,51.5633 117.759,53.23 116.5,56.5C 115.476,55.1468 114.143,54.4802 112.5,54.5 Z"/></g>
<g><path style="opacity:0.92" fill="#00483c" d="M 7.5,47.5 C 8.87344,47.3433 10.2068,47.51 11.5,48C 14.7289,51.3986 18.0622,54.5653 21.5,57.5C 20.1418,57.8222 18.4752,57.8222 16.5,57.5C 16.6463,59.9424 15.813,60.6091 14,59.5C 13.3131,61.5675 13.4798,63.5675 14.5,65.5C 13.5703,70.0589 11.4036,71.0589 8,68.5C 6.96141,69.2438 6.46141,70.2438 6.5,71.5C 4.77206,69.7745 2.77206,68.4411 0.5,67.5C 2.04254,60.5382 4.37587,53.8716 7.5,47.5 Z"/></g>
<g><path style="opacity:1" fill="#31b272" d="M 63.5,49.5 C 67.302,50.7786 70.4687,53.1119 73,56.5C 73.5791,57.9285 73.4124,59.2618 72.5,60.5C 68.5,63.8333 64.8333,67.5 61.5,71.5C 59.1667,73.1667 57.1667,75.1667 55.5,77.5C 52.5211,79.8123 49.8544,82.4789 47.5,85.5C 54.8543,93.521 62.521,101.188 70.5,108.5C 71.4756,109.815 72.4756,111.148 73.5,112.5C 72.7401,114.36 71.7401,116.027 70.5,117.5C 68.8333,118.5 67.5,119.833 66.5,121.5C 65.8501,121.804 65.1835,122.137 64.5,122.5C 63.7124,121.23 62.7124,120.23 61.5,119.5C 51.8333,109.167 41.8333,99.1667 31.5,89.5C 30.075,88.078 29.075,86.4113 28.5,84.5C 32.8333,80.8333 36.8333,76.8333 40.5,72.5C 43.5,70.1667 46.1667,67.5 48.5,64.5C 53.8333,59.8333 58.8333,54.8333 63.5,49.5 Z"/></g>
<g><path style="opacity:1" fill="#31b372" d="M 112.5,54.5 C 118.5,61.1667 124.833,67.5 131.5,73.5C 132.833,75.5 134.5,77.1667 136.5,78.5C 138.167,80.8333 140.167,82.8333 142.5,84.5C 139.902,88.438 136.902,92.1047 133.5,95.5C 130.167,98.1667 127.167,101.167 124.5,104.5C 123.5,104.833 122.833,105.5 122.5,106.5C 117.369,111.13 112.369,115.963 107.5,121C 106.552,121.483 105.552,121.649 104.5,121.5C 101.761,118.767 99.4273,115.767 97.5,112.5C 100.833,108.833 104.167,105.167 107.5,101.5C 108.833,100.833 109.833,99.8333 110.5,98.5C 115.692,94.49 119.859,89.8233 123,84.5C 122.292,83.6195 121.458,82.9528 120.5,82.5C 119.5,80.8333 118.167,79.5 116.5,78.5C 111.833,73.1667 106.833,68.1667 101.5,63.5C 99.9835,61.8143 98.6502,59.981 97.5,58C 99.7738,53.6975 103.107,51.0308 107.5,50C 109.037,51.7073 110.704,53.2073 112.5,54.5 Z"/></g>
<g><path style="opacity:1" fill="#004f42" d="M 21.5,57.5 C 27.5923,62.9394 33.9256,67.9394 40.5,72.5C 36.8333,76.8333 32.8333,80.8333 28.5,84.5C 25.5342,82.0116 22.2009,80.0116 18.5,78.5C 13.5605,77.6448 9.56049,75.3115 6.5,71.5C 6.46141,70.2438 6.96141,69.2438 8,68.5C 11.4036,71.0589 13.5703,70.0589 14.5,65.5C 13.4798,63.5675 13.3131,61.5675 14,59.5C 15.813,60.6091 16.6463,59.9424 16.5,57.5C 18.4752,57.8222 20.1418,57.8222 21.5,57.5 Z"/></g>
<g><path style="opacity:1" fill="#005a4c" d="M 72.5,60.5 C 73.1217,61.6266 73.955,62.6266 75,63.5C 76.7373,61.3754 78.904,60.542 81.5,61C 80.3279,61.4186 79.3279,62.0853 78.5,63C 79.8905,64.02 81.3905,64.8534 83,65.5C 83.3665,61.7188 84.6999,61.0522 87,63.5C 87.7412,62.3595 88.5745,62.3595 89.5,63.5C 90.668,60.5311 92.0013,60.1978 93.5,62.5C 95.0639,61.814 96.7306,61.9806 98.5,63C 97.8333,63.3333 97.1667,63.6667 96.5,64C 98.3932,65.9319 100.06,65.7652 101.5,63.5C 106.833,68.1667 111.833,73.1667 116.5,78.5C 115.534,81.1247 114.534,81.1247 113.5,78.5C 112.914,78.7093 112.414,79.0426 112,79.5C 108.384,78.7623 104.718,78.0956 101,77.5C 99.85,78.4239 98.85,78.4239 98,77.5C 97.4806,78.5156 96.6473,79.1822 95.5,79.5C 93.4805,78.86 91.6472,78.86 90,79.5C 89,78.8333 88,78.1667 87,77.5C 85.2494,78.1737 83.5827,78.507 82,78.5C 81.6667,77.8333 81.3333,77.1667 81,76.5C 77.0784,77.698 73.0784,77.0314 69,74.5C 68.228,74.6448 67.5613,74.9781 67,75.5C 66,74.1667 65,72.8333 64,71.5C 63.0228,72.7736 62.1894,72.7736 61.5,71.5C 64.8333,67.5 68.5,63.8333 72.5,60.5 Z"/></g>
<g><path style="opacity:1" fill="#005f4f" d="M 171.5,65.5 C 171.5,68.8333 171.5,72.1667 171.5,75.5C 170.883,75.3893 170.383,75.056 170,74.5C 169.316,78.0932 167.816,78.4265 165.5,75.5C 164.167,76.8333 162.833,76.8333 161.5,75.5C 160.808,76.0253 160.308,76.6919 160,77.5C 158.216,74.9974 156.549,74.9974 155,77.5C 151.968,76.9077 149.302,75.5744 147,73.5C 146,75.1667 144.667,76.5 143,77.5C 142.667,77.1667 142.333,76.8333 142,76.5C 140.956,77.6226 140.29,78.9559 140,80.5C 139.29,79.0267 138.124,78.3601 136.5,78.5C 134.5,77.1667 132.833,75.5 131.5,73.5C 132.496,73.4142 133.329,73.7476 134,74.5C 134.333,73.8333 134.667,73.1667 135,72.5C 136.612,75.0789 138.112,75.0789 139.5,72.5C 138.833,72.1667 138.167,71.8333 137.5,71.5C 141.139,70.7663 144.806,69.2663 148.5,67C 149.126,66.2496 149.626,65.4162 150,64.5C 150.689,65.3567 151.522,66.0233 152.5,66.5C 154.071,65.6906 155.738,65.3573 157.5,65.5C 157.351,66.552 157.517,67.552 158,68.5C 159.677,67.4841 161.343,66.4841 163,65.5C 163.945,65.9054 164.612,66.572 165,67.5C 166.418,64.999 167.418,65.3323 168,68.5C 168.075,65.5527 169.242,64.5527 171.5,65.5 Z"/></g>
<g><path style="opacity:1" fill="#005f4f" d="M 61.5,71.5 C 62.1894,72.7736 63.0228,72.7736 64,71.5C 65,72.8333 66,74.1667 67,75.5C 67.5613,74.9781 68.228,74.6448 69,74.5C 73.0784,77.0314 77.0784,77.698 81,76.5C 81.3333,77.1667 81.6667,77.8333 82,78.5C 83.5827,78.507 85.2494,78.1737 87,77.5C 88,78.1667 89,78.8333 90,79.5C 91.6472,78.86 93.4805,78.86 95.5,79.5C 96.6473,79.1822 97.4806,78.5156 98,77.5C 98.85,78.4239 99.85,78.4239 101,77.5C 104.718,78.0956 108.384,78.7623 112,79.5C 112.414,79.0426 112.914,78.7093 113.5,78.5C 114.534,81.1247 115.534,81.1247 116.5,78.5C 118.167,79.5 119.5,80.8333 120.5,82.5C 118.362,83.4045 116.029,84.0711 113.5,84.5C 110.053,83.9128 106.553,83.5795 103,83.5C 101.913,85.9316 101.413,85.5983 101.5,82.5C 98.9122,82.5433 96.7456,83.5433 95,85.5C 93.7387,82.1796 92.072,81.8463 90,84.5C 89.6667,84.1667 89.3333,83.8333 89,83.5C 88.3021,84.6906 87.4687,85.6906 86.5,86.5C 76.2364,83.3015 65.9031,80.3015 55.5,77.5C 57.1667,75.1667 59.1667,73.1667 61.5,71.5 Z"/></g>
<g><path style="opacity:1" fill="#004237" d="M 18.5,78.5 C 22.2009,80.0116 25.5342,82.0116 28.5,84.5C 29.075,86.4113 30.075,88.078 31.5,89.5C 32.087,90.7666 32.087,91.7666 31.5,92.5C 28.1667,89.8333 24.8333,89.8333 21.5,92.5C 21.0125,96.7404 20.0125,100.074 18.5,102.5C 15.5679,97.928 12.9012,93.0947 10.5,88C 11.3802,86.6439 11.7135,85.1439 11.5,83.5C 16.2161,85.4707 18.5495,83.8041 18.5,78.5 Z"/></g>
<g><path style="opacity:1" fill="#006455" d="M 171.5,75.5 C 171.5,79.1667 171.5,82.8333 171.5,86.5C 165.561,85.9545 159.394,85.9545 153,86.5C 152,85.8333 151,85.1667 150,84.5C 147.582,84.7787 145.082,84.7787 142.5,84.5C 140.167,82.8333 138.167,80.8333 136.5,78.5C 138.124,78.3601 139.29,79.0267 140,80.5C 140.29,78.9559 140.956,77.6226 142,76.5C 142.333,76.8333 142.667,77.1667 143,77.5C 144.667,76.5 146,75.1667 147,73.5C 149.302,75.5744 151.968,76.9077 155,77.5C 156.549,74.9974 158.216,74.9974 160,77.5C 160.308,76.6919 160.808,76.0253 161.5,75.5C 162.833,76.8333 164.167,76.8333 165.5,75.5C 167.816,78.4265 169.316,78.0932 170,74.5C 170.383,75.056 170.883,75.3893 171.5,75.5 Z"/></g>
<g><path style="opacity:1" fill="#006354" d="M 120.5,82.5 C 121.458,82.9528 122.292,83.6195 123,84.5C 119.859,89.8233 115.692,94.49 110.5,98.5C 103.457,92.8047 95.4571,88.8047 86.5,86.5C 87.4687,85.6906 88.3021,84.6906 89,83.5C 89.3333,83.8333 89.6667,84.1667 90,84.5C 92.072,81.8463 93.7387,82.1796 95,85.5C 96.7456,83.5433 98.9122,82.5433 101.5,82.5C 101.413,85.5983 101.913,85.9316 103,83.5C 106.553,83.5795 110.053,83.9128 113.5,84.5C 116.029,84.0711 118.362,83.4045 120.5,82.5 Z"/></g>
<g><path style="opacity:0.992" fill="#00392f" d="M 0.5,67.5 C 2.77206,68.4411 4.77206,69.7745 6.5,71.5C 9.56049,75.3115 13.5605,77.6448 18.5,78.5C 18.5495,83.8041 16.2161,85.4707 11.5,83.5C 11.7135,85.1439 11.3802,86.6439 10.5,88C 12.9012,93.0947 15.5679,97.928 18.5,102.5C 20.1667,106.5 21.8333,110.5 23.5,114.5C 23.7529,116.827 23.0863,118.827 21.5,120.5C 20.8586,118.704 19.8586,117.204 18.5,116C 18.8333,115.667 19.1667,115.333 19.5,115C 17.9804,112.234 15.6471,110.567 12.5,110C 12.8333,109.667 13.1667,109.333 13.5,109C 12.782,107.013 11.782,105.179 10.5,103.5C 9.52242,103.977 8.68909,104.643 8,105.5C 8.31118,104.065 8.14452,102.732 7.5,101.5C 5.88718,100.573 4.22052,99.7393 2.5,99C 4.89118,98.3086 4.89118,97.3086 2.5,96C 1.55198,95.5172 0.551975,95.3505 -0.5,95.5C -0.5,87.1667 -0.5,78.8333 -0.5,70.5C 0.403972,69.791 0.737305,68.791 0.5,67.5 Z"/></g>
<g><path style="opacity:1" fill="#005346" d="M 55.5,77.5 C 65.9031,80.3015 76.2364,83.3015 86.5,86.5C 95.4571,88.8047 103.457,92.8047 110.5,98.5C 109.833,99.8333 108.833,100.833 107.5,101.5C 105.97,100.933 104.47,100.267 103,99.5C 100.667,100.833 98.3333,102.167 96,103.5C 95.2753,102.941 94.4419,102.608 93.5,102.5C 90.4396,102.844 87.4396,104.177 84.5,106.5C 83.7065,106.069 82.8732,105.735 82,105.5C 78.1818,106.415 74.3485,107.415 70.5,108.5C 62.521,101.188 54.8543,93.521 47.5,85.5C 49.8544,82.4789 52.5211,79.8123 55.5,77.5 Z"/></g>
<g><path style="opacity:0.993" fill="#006c5b" d="M 142.5,84.5 C 145.082,84.7787 147.582,84.7787 150,84.5C 151,85.1667 152,85.8333 153,86.5C 159.394,85.9545 165.561,85.9545 171.5,86.5C 171.5,89.5 171.5,92.5 171.5,95.5C 165.439,95.7904 159.439,95.4571 153.5,94.5C 153.167,94.8333 152.833,95.1667 152.5,95.5C 153.752,97.0009 154.752,98.6675 155.5,100.5C 149.938,102.461 144.605,102.794 139.5,101.5C 144.3,94.8153 142.967,93.1486 135.5,96.5C 134.584,96.4573 133.917,96.1239 133.5,95.5C 136.902,92.1047 139.902,88.438 142.5,84.5 Z"/></g>
<g><path style="opacity:1" fill="#00463b" d="M 31.5,89.5 C 41.8333,99.1667 51.8333,109.167 61.5,119.5C 59.746,121.589 58.4127,123.922 57.5,126.5C 55.2341,126.141 53.4007,126.808 52,128.5C 50.456,125.736 49.2893,125.903 48.5,129C 51.063,129.126 53.3964,129.293 55.5,129.5C 47.8889,131.494 40.2222,132.161 32.5,131.5C 30.1939,129.861 28.1939,127.861 26.5,125.5C 25.3863,121.75 24.3863,118.083 23.5,114.5C 21.8333,110.5 20.1667,106.5 18.5,102.5C 20.0125,100.074 21.0125,96.7404 21.5,92.5C 24.8333,89.8333 28.1667,89.8333 31.5,92.5C 32.087,91.7666 32.087,90.7666 31.5,89.5 Z"/></g>
<g><path style="opacity:0.979" fill="#003d33" d="M -0.5,95.5 C 0.551975,95.3505 1.55198,95.5172 2.5,96C 4.89118,97.3086 4.89118,98.3086 2.5,99C 4.22052,99.7393 5.88718,100.573 7.5,101.5C 8.14452,102.732 8.31118,104.065 8,105.5C 8.68909,104.643 9.52242,103.977 10.5,103.5C 11.782,105.179 12.782,107.013 13.5,109C 13.1667,109.333 12.8333,109.667 12.5,110C 15.6471,110.567 17.9804,112.234 19.5,115C 19.1667,115.333 18.8333,115.667 18.5,116C 19.8586,117.204 20.8586,118.704 21.5,120.5C 23.0863,118.827 23.7529,116.827 23.5,114.5C 24.3863,118.083 25.3863,121.75 26.5,125.5C 21.4262,126.969 16.4262,128.636 11.5,130.5C 5.72788,121.178 1.72788,111.178 -0.5,100.5C -0.5,98.8333 -0.5,97.1667 -0.5,95.5 Z"/></g>
<g><path style="opacity:1" fill="#005a4c" d="M 107.5,101.5 C 104.167,105.167 100.833,108.833 97.5,112.5C 96.1196,113.706 94.9529,113.373 94,111.5C 92.1733,112.659 90.5067,113.992 89,115.5C 88.3333,114.833 87.6667,114.167 87,113.5C 85.393,115.815 83.393,116.481 81,115.5C 77.4929,117.433 73.9929,118.1 70.5,117.5C 71.7401,116.027 72.7401,114.36 73.5,112.5C 72.4756,111.148 71.4756,109.815 70.5,108.5C 74.3485,107.415 78.1818,106.415 82,105.5C 82.8732,105.735 83.7065,106.069 84.5,106.5C 87.4396,104.177 90.4396,102.844 93.5,102.5C 94.4419,102.608 95.2753,102.941 96,103.5C 98.3333,102.167 100.667,100.833 103,99.5C 104.47,100.267 105.97,100.933 107.5,101.5 Z"/></g>
<g><path style="opacity:0.984" fill="#007765" d="M 171.5,95.5 C 171.5,97.1667 171.5,98.8333 171.5,100.5C 170.566,101.568 170.232,102.901 170.5,104.5C 167.102,104.18 163.768,104.513 160.5,105.5C 161.167,106.5 161.833,107.5 162.5,108.5C 161.667,108.833 160.833,109.167 160,109.5C 152.943,110.094 145.943,110.76 139,111.5C 137.491,110.91 135.991,110.244 134.5,109.5C 135.074,107.941 135.74,106.441 136.5,105C 134.479,104.86 132.645,104.693 131,104.5C 129,105.167 127,105.833 125,106.5C 124.536,105.906 124.369,105.239 124.5,104.5C 127.167,101.167 130.167,98.1667 133.5,95.5C 133.917,96.1239 134.584,96.4573 135.5,96.5C 142.967,93.1486 144.3,94.8153 139.5,101.5C 144.605,102.794 149.938,102.461 155.5,100.5C 154.752,98.6675 153.752,97.0009 152.5,95.5C 152.833,95.1667 153.167,94.8333 153.5,94.5C 159.439,95.4571 165.439,95.7904 171.5,95.5 Z"/></g>
<g><path style="opacity:0.982" fill="#00806d" d="M 124.5,104.5 C 124.369,105.239 124.536,105.906 125,106.5C 127,105.833 129,105.167 131,104.5C 132.645,104.693 134.479,104.86 136.5,105C 135.74,106.441 135.074,107.941 134.5,109.5C 135.991,110.244 137.491,110.91 139,111.5C 145.943,110.76 152.943,110.094 160,109.5C 160.833,109.167 161.667,108.833 162.5,108.5C 161.833,107.5 161.167,106.5 160.5,105.5C 163.768,104.513 167.102,104.18 170.5,104.5C 169.976,106.306 169.309,107.972 168.5,109.5C 165.545,109.981 163.211,111.481 161.5,114C 155.926,116.314 150.259,118.481 144.5,120.5C 141.573,119.199 138.573,118.199 135.5,117.5C 132.097,112.766 127.764,109.099 122.5,106.5C 122.833,105.5 123.5,104.833 124.5,104.5 Z"/></g>
<g><path style="opacity:1" fill="#006959" d="M 122.5,106.5 C 127.764,109.099 132.097,112.766 135.5,117.5C 134.5,117.5 133.5,117.5 132.5,117.5C 132.44,116.957 132.107,116.624 131.5,116.5C 129.057,119.572 125.891,121.572 122,122.5C 121.228,122.355 120.561,122.022 120,121.5C 112.932,126.136 105.432,129.136 97.5,130.5C 97.1667,130.833 96.8333,131.167 96.5,131.5C 100.445,132.491 104.445,132.824 108.5,132.5C 108.5,133.167 108.167,133.5 107.5,133.5C 100.833,133.5 94.1667,133.5 87.5,133.5C 84.9684,132.404 82.6351,131.071 80.5,129.5C 88.4274,126.846 96.4274,124.179 104.5,121.5C 105.552,121.649 106.552,121.483 107.5,121C 112.369,115.963 117.369,111.13 122.5,106.5 Z"/></g>
<g><path style="opacity:0.959" fill="#00574a" d="M 168.5,109.5 C 166.428,118.306 162.761,126.306 157.5,133.5C 152.733,131.367 147.9,129.367 143,127.5C 139.499,128.234 135.999,128.9 132.5,129.5C 129.549,129.713 126.882,129.046 124.5,127.5C 127.547,124.455 130.213,121.122 132.5,117.5C 133.5,117.5 134.5,117.5 135.5,117.5C 138.573,118.199 141.573,119.199 144.5,120.5C 150.259,118.481 155.926,116.314 161.5,114C 163.211,111.481 165.545,109.981 168.5,109.5 Z"/></g>
<g><path style="opacity:1" fill="#006152" d="M 97.5,112.5 C 99.4273,115.767 101.761,118.767 104.5,121.5C 96.4274,124.179 88.4274,126.846 80.5,129.5C 79.1667,129.167 77.8333,128.833 76.5,128.5C 76.5,127.833 76.1667,127.5 75.5,127.5C 73.0246,124.759 70.0246,122.759 66.5,121.5C 67.5,119.833 68.8333,118.5 70.5,117.5C 73.9929,118.1 77.4929,117.433 81,115.5C 83.393,116.481 85.393,115.815 87,113.5C 87.6667,114.167 88.3333,114.833 89,115.5C 90.5067,113.992 92.1733,112.659 94,111.5C 94.9529,113.373 96.1196,113.706 97.5,112.5 Z"/></g>
<g><path style="opacity:1" fill="#00715f" d="M 132.5,117.5 C 130.213,121.122 127.547,124.455 124.5,127.5C 119.178,129.163 113.845,130.829 108.5,132.5C 104.445,132.824 100.445,132.491 96.5,131.5C 96.8333,131.167 97.1667,130.833 97.5,130.5C 105.432,129.136 112.932,126.136 120,121.5C 120.561,122.022 121.228,122.355 122,122.5C 125.891,121.572 129.057,119.572 131.5,116.5C 132.107,116.624 132.44,116.957 132.5,117.5 Z"/></g>
<g><path style="opacity:1" fill="#004c3f" d="M 61.5,119.5 C 62.7124,120.23 63.7124,121.23 64.5,122.5C 65.1835,122.137 65.8501,121.804 66.5,121.5C 70.0246,122.759 73.0246,124.759 75.5,127.5C 68.7216,127.513 62.0549,128.18 55.5,129.5C 53.3964,129.293 51.063,129.126 48.5,129C 49.2893,125.903 50.456,125.736 52,128.5C 53.4007,126.808 55.2341,126.141 57.5,126.5C 58.4127,123.922 59.746,121.589 61.5,119.5 Z"/></g>
<g><path style="opacity:0.926" fill="#00362d" d="M 26.5,125.5 C 28.1939,127.861 30.1939,129.861 32.5,131.5C 38.403,142.304 44.0697,153.304 49.5,164.5C 33.3765,157.044 20.7099,145.711 11.5,130.5C 16.4262,128.636 21.4262,126.969 26.5,125.5 Z"/></g>
<g><path style="opacity:0.982" fill="#00463b" d="M 76.5,128.5 C 77.8333,128.833 79.1667,129.167 80.5,129.5C 82.6351,131.071 84.9684,132.404 87.5,133.5C 87.5,134.167 87.5,134.833 87.5,135.5C 87.0338,137.201 87.0338,138.701 87.5,140C 86.5509,140.617 85.7175,140.451 85,139.5C 83.7955,140.859 82.2955,141.859 80.5,142.5C 79.1514,144.17 77.9848,145.836 77,147.5C 76.6667,146.833 76.3333,146.167 76,145.5C 75.0467,147.455 73.7134,149.122 72,150.5C 71.6924,149.692 71.1924,149.025 70.5,148.5C 69.1667,149.833 67.8333,151.167 66.5,152.5C 65.5745,151.359 64.7412,151.359 64,152.5C 62.5233,155.647 63.0233,158.647 65.5,161.5C 64.9747,162.192 64.3081,162.692 63.5,163C 65.0614,163.941 66.3947,165.108 67.5,166.5C 65.6978,167.275 65.0311,168.275 65.5,169.5C 60.8354,168.943 56.5021,167.61 52.5,165.5C 53.2485,164.469 53.9152,163.302 54.5,162C 55.7441,161.544 56.5774,162.044 57,163.5C 57.1667,163 57.3333,162.5 57.5,162C 56.5128,159.679 54.8461,158.013 52.5,157C 53.5971,154.235 55.5971,152.569 58.5,152C 56.8333,149.667 55.1667,147.333 53.5,145C 53.8333,144.667 54.1667,144.333 54.5,144C 53.552,143.517 52.552,143.351 51.5,143.5C 51.1192,141.058 51.7859,140.391 53.5,141.5C 54.604,139.611 55.9373,137.945 57.5,136.5C 62.5282,137.739 66.3616,136.072 69,131.5C 69.9145,135.185 70.5811,134.852 71,130.5C 72.6124,130.952 73.6124,132.285 74,134.5C 75.2937,133.146 75.4604,131.812 74.5,130.5C 75.2427,129.818 75.9094,129.151 76.5,128.5 Z"/></g>
<g><path style="opacity:0.951" fill="#002a23" d="M 157.5,133.5 C 154.258,139.411 149.925,144.411 144.5,148.5C 144.229,146.688 143.562,145.022 142.5,143.5C 141.914,143.709 141.414,144.043 141,144.5C 138.443,141.316 135.776,138.983 133,137.5C 132.667,137.833 132.333,138.167 132,138.5C 130.933,137.809 129.766,137.309 128.5,137C 128.833,136.667 129.167,136.333 129.5,136C 128.619,135.292 127.953,134.458 127.5,133.5C 128.672,131.461 130.338,130.128 132.5,129.5C 135.999,128.9 139.499,128.234 143,127.5C 147.9,129.367 152.733,131.367 157.5,133.5 Z"/></g>
<g><path style="opacity:1" fill="#004237" d="M 75.5,127.5 C 76.1667,127.5 76.5,127.833 76.5,128.5C 75.9094,129.151 75.2427,129.818 74.5,130.5C 75.4604,131.812 75.2937,133.146 74,134.5C 73.6124,132.285 72.6124,130.952 71,130.5C 70.5811,134.852 69.9145,135.185 69,131.5C 66.3616,136.072 62.5282,137.739 57.5,136.5C 55.9373,137.945 54.604,139.611 53.5,141.5C 51.7859,140.391 51.1192,141.058 51.5,143.5C 52.552,143.351 53.552,143.517 54.5,144C 54.1667,144.333 53.8333,144.667 53.5,145C 55.1667,147.333 56.8333,149.667 58.5,152C 55.5971,152.569 53.5971,154.235 52.5,157C 54.8461,158.013 56.5128,159.679 57.5,162C 57.3333,162.5 57.1667,163 57,163.5C 56.5774,162.044 55.7441,161.544 54.5,162C 53.9152,163.302 53.2485,164.469 52.5,165.5C 51.391,165.443 50.391,165.11 49.5,164.5C 44.0697,153.304 38.403,142.304 32.5,131.5C 40.2222,132.161 47.8889,131.494 55.5,129.5C 62.0549,128.18 68.7216,127.513 75.5,127.5 Z"/></g>
<g><path style="opacity:1" fill="#005648" d="M 87.5,133.5 C 94.1667,133.5 100.833,133.5 107.5,133.5C 103.376,137.281 98.7091,140.281 93.5,142.5C 92.5041,142.586 91.6708,142.252 91,141.5C 90.059,139.273 88.8923,137.273 87.5,135.5C 87.5,134.833 87.5,134.167 87.5,133.5 Z"/></g>
<g><path style="opacity:1" fill="#004439" d="M 124.5,127.5 C 126.882,129.046 129.549,129.713 132.5,129.5C 130.338,130.128 128.672,131.461 127.5,133.5C 124.185,135.808 120.851,138.141 117.5,140.5C 107.416,147.081 98.7497,155.248 91.5,165C 86.685,166.431 82.3516,168.598 78.5,171.5C 77.5,171.5 76.5,171.5 75.5,171.5C 76.9319,169.673 78.5986,168.006 80.5,166.5C 84.3534,158.119 88.6867,150.119 93.5,142.5C 98.7091,140.281 103.376,137.281 107.5,133.5C 108.167,133.5 108.5,133.167 108.5,132.5C 113.845,130.829 119.178,129.163 124.5,127.5 Z"/></g>
<g><path style="opacity:0.978" fill="#003229" d="M 127.5,133.5 C 127.953,134.458 128.619,135.292 129.5,136C 129.167,136.333 128.833,136.667 128.5,137C 129.766,137.309 130.933,137.809 132,138.5C 132.333,138.167 132.667,137.833 133,137.5C 135.776,138.983 138.443,141.316 141,144.5C 141.414,144.043 141.914,143.709 142.5,143.5C 143.562,145.022 144.229,146.688 144.5,148.5C 142.451,151.55 139.784,153.883 136.5,155.5C 135.603,154.402 134.77,154.402 134,155.5C 133.021,153.68 131.521,152.513 129.5,152C 131.516,151.101 133.183,149.767 134.5,148C 132.983,146.221 132.149,146.721 132,149.5C 131.667,148.833 131.333,148.167 131,147.5C 129.686,148.313 128.519,149.313 127.5,150.5C 126.561,148.947 125.394,147.613 124,146.5C 123.228,146.645 122.561,146.978 122,147.5C 120.375,144.541 118.875,142.208 117.5,140.5C 120.851,138.141 124.185,135.808 127.5,133.5 Z"/></g>
<g><path style="opacity:0.98" fill="#004e41" d="M 87.5,135.5 C 88.8923,137.273 90.059,139.273 91,141.5C 91.6708,142.252 92.5041,142.586 93.5,142.5C 88.6867,150.119 84.3534,158.119 80.5,166.5C 78.5986,168.006 76.9319,169.673 75.5,171.5C 73.8333,171.5 72.1667,171.5 70.5,171.5C 68.8333,170.833 67.1667,170.167 65.5,169.5C 65.0311,168.275 65.6978,167.275 67.5,166.5C 66.3947,165.108 65.0614,163.941 63.5,163C 64.3081,162.692 64.9747,162.192 65.5,161.5C 63.0233,158.647 62.5233,155.647 64,152.5C 64.7412,151.359 65.5745,151.359 66.5,152.5C 67.8333,151.167 69.1667,149.833 70.5,148.5C 71.1924,149.025 71.6924,149.692 72,150.5C 73.7134,149.122 75.0467,147.455 76,145.5C 76.3333,146.167 76.6667,146.833 77,147.5C 77.9848,145.836 79.1514,144.17 80.5,142.5C 82.2955,141.859 83.7955,140.859 85,139.5C 85.7175,140.451 86.5509,140.617 87.5,140C 87.0338,138.701 87.0338,137.201 87.5,135.5 Z"/></g>
<g><path style="opacity:0.94" fill="#00392f" d="M 117.5,140.5 C 118.875,142.208 120.375,144.541 122,147.5C 122.561,146.978 123.228,146.645 124,146.5C 125.394,147.613 126.561,148.947 127.5,150.5C 128.519,149.313 129.686,148.313 131,147.5C 131.333,148.167 131.667,148.833 132,149.5C 132.149,146.721 132.983,146.221 134.5,148C 133.183,149.767 131.516,151.101 129.5,152C 131.521,152.513 133.021,153.68 134,155.5C 134.77,154.402 135.603,154.402 136.5,155.5C 125.705,163.565 113.705,168.898 100.5,171.5C 93.1667,171.5 85.8333,171.5 78.5,171.5C 82.3516,168.598 86.685,166.431 91.5,165C 98.7497,155.248 107.416,147.081 117.5,140.5 Z"/></g>
</svg>
