<?xml version="1.0" standalone="no"?>
<!DOCTYPE svg PUBLIC "-//W3C//DTD SVG 20010904//EN"
 "http://www.w3.org/TR/2001/REC-SVG-20010904/DTD/svg10.dtd">
<svg version="1.0" xmlns="http://www.w3.org/2000/svg"
 width="172.000000pt" height="172.000000pt" viewBox="0 0 172.000000 172.000000"
 preserveAspectRatio="xMidYMid meet">

<g transform="translate(0.000000,172.000000) scale(0.100000,-0.100000)"
fill="#000000" stroke="none">
<path d="M1035 1569 c-267 -90 -434 -235 -481 -419 -30 -119 -6 -200 92 -309
51 -56 56 -66 61 -119 11 -123 -45 -266 -144 -365 -68 -68 -134 -103 -229
-120 -50 -10 -70 -18 -72 -30 -6 -31 28 -30 161 3 251 62 381 122 483 224 67
68 98 125 114 206 18 95 -2 164 -70 235 -37 38 -38 41 -22 60 33 40 108 93
182 130 60 30 195 82 417 160 6 2 9 12 6 23 -4 18 -9 18 -110 -15 -143 -46
-215 -52 -273 -23 -25 12 -59 36 -77 52 -21 21 -37 28 -49 24 -15 -6 -16 -1
-11 42 9 75 42 159 87 218 22 30 37 54 33 54 -4 0 -48 -14 -98 -31z m-21 -86
c-18 -41 -41 -126 -49 -185 -5 -32 -13 -41 -60 -68 -29 -17 -77 -51 -105 -77
-28 -25 -53 -43 -56 -40 -3 3 -5 33 -5 66 0 121 87 245 216 310 33 17 63 31
68 31 4 0 0 -17 -9 -37z m-285 -160 c-42 -85 -44 -183 -5 -264 9 -20 64 -82
121 -138 58 -56 112 -116 122 -134 43 -82 3 -233 -83 -318 -49 -48 -51 -47
-29 4 21 51 19 132 -5 181 -11 23 -66 94 -123 158 -126 142 -142 171 -141 260
2 81 39 168 103 241 51 57 65 60 40 10z m349 -117 c26 -19 61 -40 77 -46 l30
-11 -80 -41 c-97 -49 -127 -69 -182 -121 l-43 -41 -27 24 c-45 39 -73 74 -73
91 0 25 98 110 170 147 35 17 67 32 72 32 4 0 30 -16 56 -34z m-268 -560 c55
-115 -15 -253 -163 -322 -77 -35 -85 -30 -34 25 77 83 137 226 137 330 0 43 0
44 20 26 11 -10 29 -36 40 -59z"/>
</g>
</svg>
